<svg width="28" height="28" viewBox="0 0 28 28" fill="none" xmlns="http://www.w3.org/2000/svg">
<path d="M20.7585 6.17242H7.51712C5.53651 6.17242 3.93091 7.77802 3.93091 9.75863V20.7931C3.93091 22.7737 5.53651 24.3793 7.51712 24.3793H20.7585C22.7391 24.3793 24.3447 22.7737 24.3447 20.7931V9.75863C24.3447 7.77802 22.7391 6.17242 20.7585 6.17242Z" stroke="#7D848D" stroke-width="1.65517"/>
<path d="M8.34473 3.96552V7.82758" stroke="#7D848D" stroke-width="1.65517" stroke-linecap="round"/>
<path d="M5.03436 11.1379H23.2413" stroke="#7D848D" stroke-width="1.65517" stroke-linecap="round"/>
<path d="M20.4827 3.96552V7.82758" stroke="#7D848D" stroke-width="1.65517" stroke-linecap="round"/>
<path d="M9.99989 16.3793C10.457 16.3793 10.8275 16.0088 10.8275 15.5517C10.8275 15.0947 10.457 14.7242 9.99989 14.7242C9.54283 14.7242 9.1723 15.0947 9.1723 15.5517C9.1723 16.0088 9.54283 16.3793 9.99989 16.3793Z" fill="#7D848D"/>
<path d="M14.4136 16.3793C14.8707 16.3793 15.2412 16.0088 15.2412 15.5517C15.2412 15.0947 14.8707 14.7242 14.4136 14.7242C13.9566 14.7242 13.5861 15.0947 13.5861 15.5517C13.5861 16.0088 13.9566 16.3793 14.4136 16.3793Z" fill="#7D848D"/>
<path d="M18.8275 16.3793C19.2845 16.3793 19.6551 16.0088 19.6551 15.5517C19.6551 15.0947 19.2845 14.7242 18.8275 14.7242C18.3704 14.7242 17.9999 15.0947 17.9999 15.5517C17.9999 16.0088 18.3704 16.3793 18.8275 16.3793Z" fill="#7D848D"/>
<path d="M9.99989 20.7931C10.457 20.7931 10.8275 20.4226 10.8275 19.9655C10.8275 19.5085 10.457 19.1379 9.99989 19.1379C9.54283 19.1379 9.1723 19.5085 9.1723 19.9655C9.1723 20.4226 9.54283 20.7931 9.99989 20.7931Z" fill="#7D848D"/>
<path d="M14.4136 20.7931C14.8707 20.7931 15.2412 20.4226 15.2412 19.9655C15.2412 19.5085 14.8707 19.1379 14.4136 19.1379C13.9566 19.1379 13.5861 19.5085 13.5861 19.9655C13.5861 20.4226 13.9566 20.7931 14.4136 20.7931Z" fill="#7D848D"/>
<path d="M18.8275 20.7931C19.2845 20.7931 19.6551 20.4226 19.6551 19.9655C19.6551 19.5085 19.2845 19.1379 18.8275 19.1379C18.3704 19.1379 17.9999 19.5085 17.9999 19.9655C17.9999 20.4226 18.3704 20.7931 18.8275 20.7931Z" fill="#7D848D"/>
</svg>
