<svg width="27" height="28" viewBox="0 0 27 28" fill="none" xmlns="http://www.w3.org/2000/svg">
<path fill-rule="evenodd" clip-rule="evenodd" d="M12.5518 5.06896C8.13351 5.06896 4.55178 8.65069 4.55178 13.069C4.55178 15.0146 5.24529 16.7961 6.39947 18.1829C6.57989 18.3997 6.63748 18.6935 6.55226 18.9624L5.73743 21.5332L9.05167 20.4891C9.23304 20.4319 9.42855 20.439 9.60531 20.5091C10.5161 20.8701 11.5097 21.069 12.5518 21.069H14.7587C19.177 21.069 22.7587 17.4873 22.7587 13.069C22.7587 8.65069 19.177 5.06896 14.7587 5.06896H12.5518ZM2.89661 13.069C2.89661 7.73656 7.21938 3.41379 12.5518 3.41379H14.7587C20.0911 3.41379 24.4138 7.73656 24.4138 13.069C24.4138 18.4014 20.0911 22.7241 14.7587 22.7241H12.5518C11.4031 22.7241 10.2996 22.5232 9.27573 22.1539L5.72856 23.2713C4.66339 23.6069 3.66185 22.6036 3.99926 21.539L4.8416 18.8815C3.62098 17.2646 2.89661 15.2505 2.89661 13.069Z" fill="#7D848D"/>
<path d="M9.79315 14.1724C10.4026 14.1724 10.8966 13.6784 10.8966 13.069C10.8966 12.4595 10.4026 11.9655 9.79315 11.9655C9.18373 11.9655 8.6897 12.4595 8.6897 13.069C8.6897 13.6784 9.18373 14.1724 9.79315 14.1724Z" fill="#7D848D"/>
<path d="M13.6552 14.1724C14.2646 14.1724 14.7587 13.6784 14.7587 13.069C14.7587 12.4595 14.2646 11.9655 13.6552 11.9655C13.0458 11.9655 12.5518 12.4595 12.5518 13.069C12.5518 13.6784 13.0458 14.1724 13.6552 14.1724Z" fill="#7D848D"/>
<path d="M17.5173 14.1724C18.1267 14.1724 18.6207 13.6784 18.6207 13.069C18.6207 12.4595 18.1267 11.9655 17.5173 11.9655C16.9078 11.9655 16.4138 12.4595 16.4138 13.069C16.4138 13.6784 16.9078 14.1724 17.5173 14.1724Z" fill="#7D848D"/>
</svg>
