<svg width="27" height="28" viewBox="0 0 27 28" fill="none" xmlns="http://www.w3.org/2000/svg">
<path d="M2.34485 11.5832L12.2795 3.6355C13.1087 2.97208 14.2872 2.97208 15.1164 3.6355L25.0511 11.5832" stroke="#7D848D" stroke-width="1.65517" stroke-linecap="round" stroke-linejoin="round"/>
<path d="M10.8343 4.82737L6.29305 8.51714C5.46853 9.18706 5.05626 9.52202 4.83587 9.98506C4.61548 10.4481 4.61548 10.9793 4.61548 12.0417V16.1244C4.61548 20.4059 4.61548 22.5467 5.94558 23.8767C7.27568 25.2069 9.41644 25.2069 13.698 25.2069C17.9795 25.2069 20.1203 25.2069 21.4503 23.8767C22.7805 22.5467 22.7805 20.4059 22.7805 16.1244V12.0417C22.7805 10.9793 22.7805 10.4481 22.5601 9.98506C22.3396 9.52202 21.9274 9.18706 21.1029 8.51714L16.5617 4.82737C15.19 3.71288 14.5042 3.15564 13.698 3.15564C12.8918 3.15564 12.2059 3.71288 10.8343 4.82737Z" stroke="#7D848D" stroke-width="1.65517"/>
<path d="M11.1433 18.679H16.2522" stroke="#7D848D" stroke-width="1.65517" stroke-linecap="round"/>
</svg>
