<svg width="23" height="23" viewBox="0 0 23 23" fill="none" xmlns="http://www.w3.org/2000/svg">
<path d="M11.648 14.3387C12.5256 14.3387 13.3672 13.9901 13.9878 13.3696C14.6083 12.749 14.957 11.9074 14.957 11.0298C14.957 10.1522 14.6083 9.31056 13.9878 8.69001C13.3672 8.06946 12.5256 7.72084 11.648 7.72084C10.7704 7.72084 9.92878 8.06946 9.30824 8.69001C8.68769 9.31056 8.33907 10.1522 8.33907 11.0298C8.33907 11.9074 8.68769 12.749 9.30824 13.3696C9.92878 13.9901 10.7704 14.3387 11.648 14.3387ZM12.1995 2.75742C12.1995 2.61116 12.1414 2.47089 12.038 2.36746C11.9346 2.26404 11.7943 2.20593 11.648 2.20593C11.5017 2.20593 11.3615 2.26404 11.258 2.36746C11.1546 2.47089 11.0965 2.61116 11.0965 2.75742V4.43396C9.53711 4.56437 8.07433 5.24307 6.96781 6.34959C5.86129 7.45611 5.1826 8.91888 5.05218 10.4783H3.37565C3.22938 10.4783 3.08911 10.5364 2.98569 10.6398C2.88226 10.7432 2.82416 10.8835 2.82416 11.0298C2.82416 11.1761 2.88226 11.3163 2.98569 11.4198C3.08911 11.5232 3.22938 11.5813 3.37565 11.5813H5.05218C5.1826 13.1407 5.86129 14.6035 6.96781 15.71C8.07433 16.8165 9.53711 17.4952 11.0965 17.6256V19.3022C11.0965 19.4484 11.1546 19.5887 11.258 19.6921C11.3615 19.7955 11.5017 19.8536 11.648 19.8536C11.7943 19.8536 11.9346 19.7955 12.038 19.6921C12.1414 19.5887 12.1995 19.4484 12.1995 19.3022V17.6256C13.7588 17.495 15.2215 16.8162 16.328 15.7097C17.4345 14.6033 18.1132 13.1406 18.2438 11.5813H19.9204C20.0666 11.5813 20.2069 11.5232 20.3103 11.4198C20.4138 11.3163 20.4719 11.1761 20.4719 11.0298C20.4719 10.8835 20.4138 10.7432 20.3103 10.6398C20.2069 10.5364 20.0666 10.4783 19.9204 10.4783H18.2438C18.1134 8.91888 17.4347 7.45611 16.3282 6.34959C15.2217 5.24307 13.7589 4.56437 12.1995 4.43396V2.75742ZM11.648 16.5447C10.1854 16.5447 8.78263 15.9637 7.74838 14.9294C6.71414 13.8952 6.1331 12.4924 6.1331 11.0298C6.1331 9.56714 6.71414 8.1644 7.74838 7.13016C8.78263 6.09591 10.1854 5.51488 11.648 5.51488C13.1107 5.51488 14.5134 6.09591 15.5476 7.13016C16.5819 8.1644 17.1629 9.56714 17.1629 11.0298C17.1629 12.4924 16.5819 13.8952 15.5476 14.9294C14.5134 15.9637 13.1107 16.5447 11.648 16.5447Z" fill="#FF5733"/>
</svg>
